<svg width="39" height="35" viewBox="0 0 39 35" fill="none" xmlns="http://www.w3.org/2000/svg">
<path d="M16.6635 2.23564C17.5926 -0.461789 21.4074 -0.461783 22.3365 2.23565L24.7528 9.2515C25.1698 10.462 26.309 11.2746 27.5893 11.2746H35.0198C37.9681 11.2746 39.1478 15.0822 36.7159 16.7491L31.011 20.6593C29.8978 21.4223 29.4311 22.8347 29.8706 24.1108L32.1196 30.6407C33.061 33.3742 29.9717 35.7266 27.587 34.0921L21.1961 29.7117C20.1739 29.011 18.8261 29.011 17.8039 29.7117L11.413 34.0921C9.02831 35.7266 5.93895 33.3742 6.8804 30.6407L9.1294 24.1108C9.56888 22.8347 9.10221 21.4223 7.98901 20.6593L2.28414 16.7491C-0.147753 15.0822 1.03192 11.2746 3.98023 11.2746H11.4107C12.691 11.2746 13.8302 10.462 14.2472 9.2515L16.6635 2.23564Z" fill="#F9BF29"/>
</svg>
